<svg
   width="128"
   height="128"
   viewBox="0 0 34 34"
   id="monogram"
   xmlns="http://www.w3.org/2000/svg"
   xmlns:svg="http://www.w3.org/2000/svg">
   <path
      d="M 16.933594,0 C 7.5941097,2.3532558e-7 2.3532558e-7,7.5941097 0,16.933594 c 0,9.339484 7.5941095,16.933593 16.933594,16.933593 9.339484,0 16.933594,-7.594109 16.933593,-16.933593 C 33.867187,7.5941095 26.273078,0 16.933594,0 Z m 0,2.1171875 C 25.12915,2.1171875 31.75,8.7380375 31.75,16.933594 31.75,25.12915 25.12915,31.75 16.933594,31.75 8.7380375,31.75 2.1171875,25.12915 2.1171875,16.933594 2.1171877,8.7380377 8.7380377,2.1171877 16.933594,2.1171875 Z M 11.314038,9.5730589 C 9.4974211,9.6688737 7.6596786,10.52349 6.5344041,11.975317 c -0.9618362,1.217755 -0.7735147,3.217528 0.5523449,4.102726 0.420579,0.433333 1.7263481,0.640749 0.5514508,0.958502 -1.4554383,0.762277 -2.647281,2.357486 -2.2958303,4.069476 0.3568607,1.893129 2.3157301,2.940824 4.0905104,3.120652 2.0927381,0.259254 4.3054011,-0.156326 6.0103311,-1.449118 0.690558,-0.272709 1.378663,-1.695733 1.848285,-0.494715 1.84714,2.271937 5.45996,2.66082 7.804292,0.943313 2.629737,-1.780399 3.970815,-5.185515 3.331267,-8.287074 -0.406092,-2.533784 -2.342997,-4.895789 -4.964819,-5.2759897 -2.209422,-0.4315068 -4.517856,0.5519277 -5.920155,2.2741667 -2.099846,2.401078 -2.583716,6.054255 -1.190625,8.919352 -1.919959,1.123293 -4.33575,1.818563 -6.4999005,1.003949 -1.0388551,-0.3898 -2.1626315,-1.492462 -1.6976895,-2.689551 0.8103387,-1.676183 2.923335,-2.18705 4.631917,-1.940531 0.632469,0.372257 0.891689,-0.02525 1.116756,-0.557596 0.08554,-0.286894 0.497411,-0.615401 0.368223,-0.874914 -0.371716,-0.57303 -1.102377,0.05714 -1.659487,-0.05408 -1.526686,0.108033 -3.381026,-0.217053 -4.1549127,-1.701482 -0.5909882,-1.131939 0.2113578,-2.619587 1.4672311,-2.798834 1.6244086,-0.400494 3.0618866,0.661479 4.3864016,1.425802 0.903887,0.246509 1.482217,-0.929846 1.997722,-1.530023 0.844684,-0.78435 -0.390099,-1.3726693 -1.127765,-0.986478 -1.216604,0.02835 -2.319375,-0.6365044 -3.542504,-0.5751771 l -0.159846,-0.00348 z m 10.629325,1.7099731 c 1.647933,0.03307 2.743642,1.584695 3.30109,2.973979 0.763963,1.921053 0.702425,4.122756 0.0816,6.074818 -0.363306,1.213539 -1.427388,2.253427 -2.749171,2.246112 -1.739382,0.123717 -3.040854,-1.412892 -3.651942,-2.878885 -0.818887,-1.987594 -0.711819,-4.290403 -0.0029,-6.293259 0.466975,-1.265507 1.631488,-2.201379 3.021341,-2.122765 z"><path/>
</svg>
